<svg width="880" height="300" viewBox="0 0 880 300"
     xmlns="http://www.w3.org/2000/svg" font-family="'SF Pro Display','Inter','Segoe UI',Helvetica,Arial,sans-serif">
  <style>
    text { user-select: none; }
    .mono { font-family: 'SF Mono','JetBrains Mono','Fira Code',Menlo,Consolas,monospace; }
    
    .hero-bg { fill: #0A0A0B; }
    .name { font-size: 34px; font-weight: 700; fill: #F5F5F7; letter-spacing: -0.5px; }
    .role { font-size: 17px; font-weight: 500; fill: #5EEAD4; }
    .tagline { font-size: 13px; fill: #A1A1A6; }
    .prompt { font-family: 'SF Mono','JetBrains Mono','Fira Code',Menlo,Consolas,monospace; font-size: 11.5px; fill: #6E6E73; }
    
    #hero-name {
      opacity: 0;
      animation: fadeIn-hero-name 550ms ease 100ms forwards;
    }

    @keyframes fadeIn-hero-name {
      from {
        opacity: 0;
      }
      to {
        opacity: 1;
      }
    }
    
    
    #hero-role {
      opacity: 0;
      animation: fadeIn-hero-role 550ms ease 280ms forwards;
    }

    @keyframes fadeIn-hero-role {
      from {
        opacity: 0;
      }
      to {
        opacity: 1;
      }
    }
    
    
    #hero-tagline {
      opacity: 0;
      animation: fadeIn-hero-tagline 550ms ease 430ms forwards;
    }

    @keyframes fadeIn-hero-tagline {
      from {
        opacity: 0;
      }
      to {
        opacity: 1;
      }
    }
    
    
    #hero-chips {
      opacity: 0;
      animation: fadeIn-hero-chips 550ms ease 600ms forwards;
    }

    @keyframes fadeIn-hero-chips {
      from {
        opacity: 0;
      }
      to {
        opacity: 1;
      }
    }
    
    
    #hero-underline {
      stroke-dasharray: 64;
      animation: draw-hero-underline 700ms ease-out 250ms both;
    }
    @keyframes draw-hero-underline {
      from { stroke-dashoffset: 64; }
      to { stroke-dashoffset: 0; }
    }
    
    #hero-cursor {
      animation: blink-hero-cursor 480ms steps(1) 2880ms 6;
      opacity: 1;
    }
    @keyframes blink-hero-cursor { 50% { opacity: 0; } }
    
  </style>

<rect class="hero-bg" x="0" y="0" width="880" height="300" rx="20"/>
<circle cx="28" cy="28" r="0.6" fill="#232326" opacity="0.35"/><circle cx="56" cy="28" r="0.6" fill="#232326" opacity="0.35"/><circle cx="84" cy="28" r="0.6" fill="#232326" opacity="0.35"/><circle cx="112" cy="28" r="0.6" fill="#232326" opacity="0.35"/><circle cx="140" cy="28" r="0.6" fill="#232326" opacity="0.35"/><circle cx="168" cy="28" r="0.6" fill="#232326" opacity="0.35"/><circle cx="196" cy="28" r="0.6" fill="#232326" opacity="0.35"/><circle cx="224" cy="28" r="0.6" fill="#232326" opacity="0.35"/><circle cx="252" cy="28" r="0.6" fill="#232326" opacity="0.35"/><circle cx="280" cy="28" r="0.6" fill="#232326" opacity="0.35"/><circle cx="308" cy="28" r="0.6" fill="#232326" opacity="0.35"/><circle cx="336" cy="28" r="0.6" fill="#232326" opacity="0.35"/><circle cx="364" cy="28" r="0.6" fill="#232326" opacity="0.35"/><circle cx="392" cy="28" r="0.6" fill="#232326" opacity="0.35"/><circle cx="420" cy="28" r="0.6" fill="#232326" opacity="0.35"/><circle cx="448" cy="28" r="0.6" fill="#232326" opacity="0.35"/><circle cx="476" cy="28" r="0.6" fill="#232326" opacity="0.35"/><circle cx="504" cy="28" r="0.6" fill="#232326" opacity="0.35"/><circle cx="532" cy="28" r="0.6" fill="#232326" opacity="0.35"/><circle cx="560" cy="28" r="0.6" fill="#232326" opacity="0.35"/><circle cx="588" cy="28" r="0.6" fill="#232326" opacity="0.35"/><circle cx="616" cy="28" r="0.6" fill="#232326" opacity="0.35"/><circle cx="644" cy="28" r="0.6" fill="#232326" opacity="0.35"/><circle cx="672" cy="28" r="0.6" fill="#232326" opacity="0.35"/><circle cx="700" cy="28" r="0.6" fill="#232326" opacity="0.35"/><circle cx="728" cy="28" r="0.6" fill="#232326" opacity="0.35"/><circle cx="756" cy="28" r="0.6" fill="#232326" opacity="0.35"/><circle cx="784" cy="28" r="0.6" fill="#232326" opacity="0.35"/><circle cx="812" cy="28" r="0.6" fill="#232326" opacity="0.35"/><circle cx="840" cy="28" r="0.6" fill="#232326" opacity="0.35"/><circle cx="868" cy="28" r="0.6" fill="#232326" opacity="0.35"/><circle cx="28" cy="56" r="0.6" fill="#232326" opacity="0.35"/><circle cx="56" cy="56" r="0.6" fill="#232326" opacity="0.35"/><circle cx="84" cy="56" r="0.6" fill="#232326" opacity="0.35"/><circle cx="112" cy="56" r="0.6" fill="#232326" opacity="0.35"/><circle cx="140" cy="56" r="0.6" fill="#232326" opacity="0.35"/><circle cx="168" cy="56" r="0.6" fill="#232326" opacity="0.35"/><circle cx="196" cy="56" r="0.6" fill="#232326" opacity="0.35"/><circle cx="224" cy="56" r="0.6" fill="#232326" opacity="0.35"/><circle cx="252" cy="56" r="0.6" fill="#232326" opacity="0.35"/><circle cx="280" cy="56" r="0.6" fill="#232326" opacity="0.35"/><circle cx="308" cy="56" r="0.6" fill="#232326" opacity="0.35"/><circle cx="336" cy="56" r="0.6" fill="#232326" opacity="0.35"/><circle cx="364" cy="56" r="0.6" fill="#232326" opacity="0.35"/><circle cx="392" cy="56" r="0.6" fill="#232326" opacity="0.35"/><circle cx="420" cy="56" r="0.6" fill="#232326" opacity="0.35"/><circle cx="448" cy="56" r="0.6" fill="#232326" opacity="0.35"/><circle cx="476" cy="56" r="0.6" fill="#232326" opacity="0.35"/><circle cx="504" cy="56" r="0.6" fill="#232326" opacity="0.35"/><circle cx="532" cy="56" r="0.6" fill="#232326" opacity="0.35"/><circle cx="560" cy="56" r="0.6" fill="#232326" opacity="0.35"/><circle cx="588" cy="56" r="0.6" fill="#232326" opacity="0.35"/><circle cx="616" cy="56" r="0.6" fill="#232326" opacity="0.35"/><circle cx="644" cy="56" r="0.6" fill="#232326" opacity="0.35"/><circle cx="672" cy="56" r="0.6" fill="#232326" opacity="0.35"/><circle cx="700" cy="56" r="0.6" fill="#232326" opacity="0.35"/><circle cx="728" cy="56" r="0.6" fill="#232326" opacity="0.35"/><circle cx="756" cy="56" r="0.6" fill="#232326" opacity="0.35"/><circle cx="784" cy="56" r="0.6" fill="#232326" opacity="0.35"/><circle cx="812" cy="56" r="0.6" fill="#232326" opacity="0.35"/><circle cx="840" cy="56" r="0.6" fill="#232326" opacity="0.35"/><circle cx="868" cy="56" r="0.6" fill="#232326" opacity="0.35"/><circle cx="28" cy="84" r="0.6" fill="#232326" opacity="0.35"/><circle cx="56" cy="84" r="0.6" fill="#232326" opacity="0.35"/><circle cx="84" cy="84" r="0.6" fill="#232326" opacity="0.35"/><circle cx="112" cy="84" r="0.6" fill="#232326" opacity="0.35"/><circle cx="140" cy="84" r="0.6" fill="#232326" opacity="0.35"/><circle cx="168" cy="84" r="0.6" fill="#232326" opacity="0.35"/><circle cx="196" cy="84" r="0.6" fill="#232326" opacity="0.35"/><circle cx="224" cy="84" r="0.6" fill="#232326" opacity="0.35"/><circle cx="252" cy="84" r="0.6" fill="#232326" opacity="0.35"/><circle cx="280" cy="84" r="0.6" fill="#232326" opacity="0.35"/><circle cx="308" cy="84" r="0.6" fill="#232326" opacity="0.35"/><circle cx="336" cy="84" r="0.6" fill="#232326" opacity="0.35"/><circle cx="364" cy="84" r="0.6" fill="#232326" opacity="0.35"/><circle cx="392" cy="84" r="0.6" fill="#232326" opacity="0.35"/><circle cx="420" cy="84" r="0.6" fill="#232326" opacity="0.35"/><circle cx="448" cy="84" r="0.6" fill="#232326" opacity="0.35"/><circle cx="476" cy="84" r="0.6" fill="#232326" opacity="0.35"/><circle cx="504" cy="84" r="0.6" fill="#232326" opacity="0.35"/><circle cx="532" cy="84" r="0.6" fill="#232326" opacity="0.35"/><circle cx="560" cy="84" r="0.6" fill="#232326" opacity="0.35"/><circle cx="588" cy="84" r="0.6" fill="#232326" opacity="0.35"/><circle cx="616" cy="84" r="0.6" fill="#232326" opacity="0.35"/><circle cx="644" cy="84" r="0.6" fill="#232326" opacity="0.35"/><circle cx="672" cy="84" r="0.6" fill="#232326" opacity="0.35"/><circle cx="700" cy="84" r="0.6" fill="#232326" opacity="0.35"/><circle cx="728" cy="84" r="0.6" fill="#232326" opacity="0.35"/><circle cx="756" cy="84" r="0.6" fill="#232326" opacity="0.35"/><circle cx="784" cy="84" r="0.6" fill="#232326" opacity="0.35"/><circle cx="812" cy="84" r="0.6" fill="#232326" opacity="0.35"/><circle cx="840" cy="84" r="0.6" fill="#232326" opacity="0.35"/><circle cx="868" cy="84" r="0.6" fill="#232326" opacity="0.35"/><circle cx="28" cy="112" r="0.6" fill="#232326" opacity="0.35"/><circle cx="56" cy="112" r="0.6" fill="#232326" opacity="0.35"/><circle cx="84" cy="112" r="0.6" fill="#232326" opacity="0.35"/><circle cx="112" cy="112" r="0.6" fill="#232326" opacity="0.35"/><circle cx="140" cy="112" r="0.6" fill="#232326" opacity="0.35"/><circle cx="168" cy="112" r="0.6" fill="#232326" opacity="0.35"/><circle cx="196" cy="112" r="0.6" fill="#232326" opacity="0.35"/><circle cx="224" cy="112" r="0.6" fill="#232326" opacity="0.35"/><circle cx="252" cy="112" r="0.6" fill="#232326" opacity="0.35"/><circle cx="280" cy="112" r="0.6" fill="#232326" opacity="0.35"/><circle cx="308" cy="112" r="0.6" fill="#232326" opacity="0.35"/><circle cx="336" cy="112" r="0.6" fill="#232326" opacity="0.35"/><circle cx="364" cy="112" r="0.6" fill="#232326" opacity="0.35"/><circle cx="392" cy="112" r="0.6" fill="#232326" opacity="0.35"/><circle cx="420" cy="112" r="0.6" fill="#232326" opacity="0.35"/><circle cx="448" cy="112" r="0.6" fill="#232326" opacity="0.35"/><circle cx="476" cy="112" r="0.6" fill="#232326" opacity="0.35"/><circle cx="504" cy="112" r="0.6" fill="#232326" opacity="0.35"/><circle cx="532" cy="112" r="0.6" fill="#232326" opacity="0.35"/><circle cx="560" cy="112" r="0.6" fill="#232326" opacity="0.35"/><circle cx="588" cy="112" r="0.6" fill="#232326" opacity="0.35"/><circle cx="616" cy="112" r="0.6" fill="#232326" opacity="0.35"/><circle cx="644" cy="112" r="0.6" fill="#232326" opacity="0.35"/><circle cx="672" cy="112" r="0.6" fill="#232326" opacity="0.35"/><circle cx="700" cy="112" r="0.6" fill="#232326" opacity="0.35"/><circle cx="728" cy="112" r="0.6" fill="#232326" opacity="0.35"/><circle cx="756" cy="112" r="0.6" fill="#232326" opacity="0.35"/><circle cx="784" cy="112" r="0.6" fill="#232326" opacity="0.35"/><circle cx="812" cy="112" r="0.6" fill="#232326" opacity="0.35"/><circle cx="840" cy="112" r="0.6" fill="#232326" opacity="0.35"/><circle cx="868" cy="112" r="0.6" fill="#232326" opacity="0.35"/><circle cx="28" cy="140" r="0.6" fill="#232326" opacity="0.35"/><circle cx="56" cy="140" r="0.6" fill="#232326" opacity="0.35"/><circle cx="84" cy="140" r="0.6" fill="#232326" opacity="0.35"/><circle cx="112" cy="140" r="0.6" fill="#232326" opacity="0.35"/><circle cx="140" cy="140" r="0.6" fill="#232326" opacity="0.35"/><circle cx="168" cy="140" r="0.6" fill="#232326" opacity="0.35"/><circle cx="196" cy="140" r="0.6" fill="#232326" opacity="0.35"/><circle cx="224" cy="140" r="0.6" fill="#232326" opacity="0.35"/><circle cx="252" cy="140" r="0.6" fill="#232326" opacity="0.35"/><circle cx="280" cy="140" r="0.6" fill="#232326" opacity="0.35"/><circle cx="308" cy="140" r="0.6" fill="#232326" opacity="0.35"/><circle cx="336" cy="140" r="0.6" fill="#232326" opacity="0.35"/><circle cx="364" cy="140" r="0.6" fill="#232326" opacity="0.35"/><circle cx="392" cy="140" r="0.6" fill="#232326" opacity="0.35"/><circle cx="420" cy="140" r="0.6" fill="#232326" opacity="0.35"/><circle cx="448" cy="140" r="0.6" fill="#232326" opacity="0.35"/><circle cx="476" cy="140" r="0.6" fill="#232326" opacity="0.35"/><circle cx="504" cy="140" r="0.6" fill="#232326" opacity="0.35"/><circle cx="532" cy="140" r="0.6" fill="#232326" opacity="0.35"/><circle cx="560" cy="140" r="0.6" fill="#232326" opacity="0.35"/><circle cx="588" cy="140" r="0.6" fill="#232326" opacity="0.35"/><circle cx="616" cy="140" r="0.6" fill="#232326" opacity="0.35"/><circle cx="644" cy="140" r="0.6" fill="#232326" opacity="0.35"/><circle cx="672" cy="140" r="0.6" fill="#232326" opacity="0.35"/><circle cx="700" cy="140" r="0.6" fill="#232326" opacity="0.35"/><circle cx="728" cy="140" r="0.6" fill="#232326" opacity="0.35"/><circle cx="756" cy="140" r="0.6" fill="#232326" opacity="0.35"/><circle cx="784" cy="140" r="0.6" fill="#232326" opacity="0.35"/><circle cx="812" cy="140" r="0.6" fill="#232326" opacity="0.35"/><circle cx="840" cy="140" r="0.6" fill="#232326" opacity="0.35"/><circle cx="868" cy="140" r="0.6" fill="#232326" opacity="0.35"/><circle cx="28" cy="168" r="0.6" fill="#232326" opacity="0.35"/><circle cx="56" cy="168" r="0.6" fill="#232326" opacity="0.35"/><circle cx="84" cy="168" r="0.6" fill="#232326" opacity="0.35"/><circle cx="112" cy="168" r="0.6" fill="#232326" opacity="0.35"/><circle cx="140" cy="168" r="0.6" fill="#232326" opacity="0.35"/><circle cx="168" cy="168" r="0.6" fill="#232326" opacity="0.35"/><circle cx="196" cy="168" r="0.6" fill="#232326" opacity="0.35"/><circle cx="224" cy="168" r="0.6" fill="#232326" opacity="0.35"/><circle cx="252" cy="168" r="0.6" fill="#232326" opacity="0.35"/><circle cx="280" cy="168" r="0.6" fill="#232326" opacity="0.35"/><circle cx="308" cy="168" r="0.6" fill="#232326" opacity="0.35"/><circle cx="336" cy="168" r="0.6" fill="#232326" opacity="0.35"/><circle cx="364" cy="168" r="0.6" fill="#232326" opacity="0.35"/><circle cx="392" cy="168" r="0.6" fill="#232326" opacity="0.35"/><circle cx="420" cy="168" r="0.6" fill="#232326" opacity="0.35"/><circle cx="448" cy="168" r="0.6" fill="#232326" opacity="0.35"/><circle cx="476" cy="168" r="0.6" fill="#232326" opacity="0.35"/><circle cx="504" cy="168" r="0.6" fill="#232326" opacity="0.35"/><circle cx="532" cy="168" r="0.6" fill="#232326" opacity="0.35"/><circle cx="560" cy="168" r="0.6" fill="#232326" opacity="0.35"/><circle cx="588" cy="168" r="0.6" fill="#232326" opacity="0.35"/><circle cx="616" cy="168" r="0.6" fill="#232326" opacity="0.35"/><circle cx="644" cy="168" r="0.6" fill="#232326" opacity="0.35"/><circle cx="672" cy="168" r="0.6" fill="#232326" opacity="0.35"/><circle cx="700" cy="168" r="0.6" fill="#232326" opacity="0.35"/><circle cx="728" cy="168" r="0.6" fill="#232326" opacity="0.35"/><circle cx="756" cy="168" r="0.6" fill="#232326" opacity="0.35"/><circle cx="784" cy="168" r="0.6" fill="#232326" opacity="0.35"/><circle cx="812" cy="168" r="0.6" fill="#232326" opacity="0.35"/><circle cx="840" cy="168" r="0.6" fill="#232326" opacity="0.35"/><circle cx="868" cy="168" r="0.6" fill="#232326" opacity="0.35"/><circle cx="28" cy="196" r="0.6" fill="#232326" opacity="0.35"/><circle cx="56" cy="196" r="0.6" fill="#232326" opacity="0.35"/><circle cx="84" cy="196" r="0.6" fill="#232326" opacity="0.35"/><circle cx="112" cy="196" r="0.6" fill="#232326" opacity="0.35"/><circle cx="140" cy="196" r="0.6" fill="#232326" opacity="0.35"/><circle cx="168" cy="196" r="0.6" fill="#232326" opacity="0.35"/><circle cx="196" cy="196" r="0.6" fill="#232326" opacity="0.35"/><circle cx="224" cy="196" r="0.6" fill="#232326" opacity="0.35"/><circle cx="252" cy="196" r="0.6" fill="#232326" opacity="0.35"/><circle cx="280" cy="196" r="0.6" fill="#232326" opacity="0.35"/><circle cx="308" cy="196" r="0.6" fill="#232326" opacity="0.35"/><circle cx="336" cy="196" r="0.6" fill="#232326" opacity="0.35"/><circle cx="364" cy="196" r="0.6" fill="#232326" opacity="0.35"/><circle cx="392" cy="196" r="0.6" fill="#232326" opacity="0.35"/><circle cx="420" cy="196" r="0.6" fill="#232326" opacity="0.35"/><circle cx="448" cy="196" r="0.6" fill="#232326" opacity="0.35"/><circle cx="476" cy="196" r="0.6" fill="#232326" opacity="0.35"/><circle cx="504" cy="196" r="0.6" fill="#232326" opacity="0.35"/><circle cx="532" cy="196" r="0.6" fill="#232326" opacity="0.35"/><circle cx="560" cy="196" r="0.6" fill="#232326" opacity="0.35"/><circle cx="588" cy="196" r="0.6" fill="#232326" opacity="0.35"/><circle cx="616" cy="196" r="0.6" fill="#232326" opacity="0.35"/><circle cx="644" cy="196" r="0.6" fill="#232326" opacity="0.35"/><circle cx="672" cy="196" r="0.6" fill="#232326" opacity="0.35"/><circle cx="700" cy="196" r="0.6" fill="#232326" opacity="0.35"/><circle cx="728" cy="196" r="0.6" fill="#232326" opacity="0.35"/><circle cx="756" cy="196" r="0.6" fill="#232326" opacity="0.35"/><circle cx="784" cy="196" r="0.6" fill="#232326" opacity="0.35"/><circle cx="812" cy="196" r="0.6" fill="#232326" opacity="0.35"/><circle cx="840" cy="196" r="0.6" fill="#232326" opacity="0.35"/><circle cx="868" cy="196" r="0.6" fill="#232326" opacity="0.35"/><circle cx="28" cy="224" r="0.6" fill="#232326" opacity="0.35"/><circle cx="56" cy="224" r="0.6" fill="#232326" opacity="0.35"/><circle cx="84" cy="224" r="0.6" fill="#232326" opacity="0.35"/><circle cx="112" cy="224" r="0.6" fill="#232326" opacity="0.35"/><circle cx="140" cy="224" r="0.6" fill="#232326" opacity="0.35"/><circle cx="168" cy="224" r="0.6" fill="#232326" opacity="0.35"/><circle cx="196" cy="224" r="0.6" fill="#232326" opacity="0.35"/><circle cx="224" cy="224" r="0.6" fill="#232326" opacity="0.35"/><circle cx="252" cy="224" r="0.6" fill="#232326" opacity="0.35"/><circle cx="280" cy="224" r="0.6" fill="#232326" opacity="0.35"/><circle cx="308" cy="224" r="0.6" fill="#232326" opacity="0.35"/><circle cx="336" cy="224" r="0.6" fill="#232326" opacity="0.35"/><circle cx="364" cy="224" r="0.6" fill="#232326" opacity="0.35"/><circle cx="392" cy="224" r="0.6" fill="#232326" opacity="0.35"/><circle cx="420" cy="224" r="0.6" fill="#232326" opacity="0.35"/><circle cx="448" cy="224" r="0.6" fill="#232326" opacity="0.35"/><circle cx="476" cy="224" r="0.6" fill="#232326" opacity="0.35"/><circle cx="504" cy="224" r="0.6" fill="#232326" opacity="0.35"/><circle cx="532" cy="224" r="0.6" fill="#232326" opacity="0.35"/><circle cx="560" cy="224" r="0.6" fill="#232326" opacity="0.35"/><circle cx="588" cy="224" r="0.6" fill="#232326" opacity="0.35"/><circle cx="616" cy="224" r="0.6" fill="#232326" opacity="0.35"/><circle cx="644" cy="224" r="0.6" fill="#232326" opacity="0.35"/><circle cx="672" cy="224" r="0.6" fill="#232326" opacity="0.35"/><circle cx="700" cy="224" r="0.6" fill="#232326" opacity="0.35"/><circle cx="728" cy="224" r="0.6" fill="#232326" opacity="0.35"/><circle cx="756" cy="224" r="0.6" fill="#232326" opacity="0.35"/><circle cx="784" cy="224" r="0.6" fill="#232326" opacity="0.35"/><circle cx="812" cy="224" r="0.6" fill="#232326" opacity="0.35"/><circle cx="840" cy="224" r="0.6" fill="#232326" opacity="0.35"/><circle cx="868" cy="224" r="0.6" fill="#232326" opacity="0.35"/><circle cx="28" cy="252" r="0.6" fill="#232326" opacity="0.35"/><circle cx="56" cy="252" r="0.6" fill="#232326" opacity="0.35"/><circle cx="84" cy="252" r="0.6" fill="#232326" opacity="0.35"/><circle cx="112" cy="252" r="0.6" fill="#232326" opacity="0.35"/><circle cx="140" cy="252" r="0.6" fill="#232326" opacity="0.35"/><circle cx="168" cy="252" r="0.6" fill="#232326" opacity="0.35"/><circle cx="196" cy="252" r="0.6" fill="#232326" opacity="0.35"/><circle cx="224" cy="252" r="0.6" fill="#232326" opacity="0.35"/><circle cx="252" cy="252" r="0.6" fill="#232326" opacity="0.35"/><circle cx="280" cy="252" r="0.6" fill="#232326" opacity="0.35"/><circle cx="308" cy="252" r="0.6" fill="#232326" opacity="0.35"/><circle cx="336" cy="252" r="0.6" fill="#232326" opacity="0.35"/><circle cx="364" cy="252" r="0.6" fill="#232326" opacity="0.35"/><circle cx="392" cy="252" r="0.6" fill="#232326" opacity="0.35"/><circle cx="420" cy="252" r="0.6" fill="#232326" opacity="0.35"/><circle cx="448" cy="252" r="0.6" fill="#232326" opacity="0.35"/><circle cx="476" cy="252" r="0.6" fill="#232326" opacity="0.35"/><circle cx="504" cy="252" r="0.6" fill="#232326" opacity="0.35"/><circle cx="532" cy="252" r="0.6" fill="#232326" opacity="0.35"/><circle cx="560" cy="252" r="0.6" fill="#232326" opacity="0.35"/><circle cx="588" cy="252" r="0.6" fill="#232326" opacity="0.35"/><circle cx="616" cy="252" r="0.6" fill="#232326" opacity="0.35"/><circle cx="644" cy="252" r="0.6" fill="#232326" opacity="0.35"/><circle cx="672" cy="252" r="0.6" fill="#232326" opacity="0.35"/><circle cx="700" cy="252" r="0.6" fill="#232326" opacity="0.35"/><circle cx="728" cy="252" r="0.6" fill="#232326" opacity="0.35"/><circle cx="756" cy="252" r="0.6" fill="#232326" opacity="0.35"/><circle cx="784" cy="252" r="0.6" fill="#232326" opacity="0.35"/><circle cx="812" cy="252" r="0.6" fill="#232326" opacity="0.35"/><circle cx="840" cy="252" r="0.6" fill="#232326" opacity="0.35"/><circle cx="868" cy="252" r="0.6" fill="#232326" opacity="0.35"/><circle cx="28" cy="280" r="0.6" fill="#232326" opacity="0.35"/><circle cx="56" cy="280" r="0.6" fill="#232326" opacity="0.35"/><circle cx="84" cy="280" r="0.6" fill="#232326" opacity="0.35"/><circle cx="112" cy="280" r="0.6" fill="#232326" opacity="0.35"/><circle cx="140" cy="280" r="0.6" fill="#232326" opacity="0.35"/><circle cx="168" cy="280" r="0.6" fill="#232326" opacity="0.35"/><circle cx="196" cy="280" r="0.6" fill="#232326" opacity="0.35"/><circle cx="224" cy="280" r="0.6" fill="#232326" opacity="0.35"/><circle cx="252" cy="280" r="0.6" fill="#232326" opacity="0.35"/><circle cx="280" cy="280" r="0.6" fill="#232326" opacity="0.35"/><circle cx="308" cy="280" r="0.6" fill="#232326" opacity="0.35"/><circle cx="336" cy="280" r="0.6" fill="#232326" opacity="0.35"/><circle cx="364" cy="280" r="0.6" fill="#232326" opacity="0.35"/><circle cx="392" cy="280" r="0.6" fill="#232326" opacity="0.35"/><circle cx="420" cy="280" r="0.6" fill="#232326" opacity="0.35"/><circle cx="448" cy="280" r="0.6" fill="#232326" opacity="0.35"/><circle cx="476" cy="280" r="0.6" fill="#232326" opacity="0.35"/><circle cx="504" cy="280" r="0.6" fill="#232326" opacity="0.35"/><circle cx="532" cy="280" r="0.6" fill="#232326" opacity="0.35"/><circle cx="560" cy="280" r="0.6" fill="#232326" opacity="0.35"/><circle cx="588" cy="280" r="0.6" fill="#232326" opacity="0.35"/><circle cx="616" cy="280" r="0.6" fill="#232326" opacity="0.35"/><circle cx="644" cy="280" r="0.6" fill="#232326" opacity="0.35"/><circle cx="672" cy="280" r="0.6" fill="#232326" opacity="0.35"/><circle cx="700" cy="280" r="0.6" fill="#232326" opacity="0.35"/><circle cx="728" cy="280" r="0.6" fill="#232326" opacity="0.35"/><circle cx="756" cy="280" r="0.6" fill="#232326" opacity="0.35"/><circle cx="784" cy="280" r="0.6" fill="#232326" opacity="0.35"/><circle cx="812" cy="280" r="0.6" fill="#232326" opacity="0.35"/><circle cx="840" cy="280" r="0.6" fill="#232326" opacity="0.35"/><circle cx="868" cy="280" r="0.6" fill="#232326" opacity="0.35"/>
<defs>
      <radialGradient id="heroGlow" cx="15%" cy="20%" r="60%">
        <stop offset="0%" stop-color="#5EEAD4" stop-opacity="0.10"/>
        <stop offset="100%" stop-color="#5EEAD4" stop-opacity="0"/>
      </radialGradient>
    </defs>
<rect x="0" y="0" width="880" height="300" rx="20" fill="url(#heroGlow)"/>
<rect x="0.5" y="0.5" width="879" height="299" rx="20" fill="none" stroke="#232326"/>
<text x="48" y="52" class="prompt mono">zainsk12@github ~ $ whoami<tspan id="hero-cursor">▌</tspan></text>
<g id="hero-name"><text x="48" y="108" class="name">Shaikh Md. Zain</text><line id="hero-underline" x1="48" y1="122" x2="112" y2="122" stroke="#5EEAD4" stroke-width="3" stroke-linecap="round"/></g>
<text id="hero-role" x="48" y="150" class="role">Full-Stack Developer  ·  Software Development Engineer  ·  Java &amp; MERN  ·  AI/ML Enthusiast</text>
<text id="hero-tagline" x="48" y="180" class="tagline">I build production-grade web platforms and ship them end to end — backend, fro</text>
<text id="hero-tagline" x="48" y="200" class="tagline">ntend, and the AI layer in between.</text>
<g id="hero-chips">
  <g id="chip-0">
    <rect x="48" y="232" width="77" height="34" rx="17"
          fill="#111113" stroke="#232326" stroke-width="1"/>
    <circle cx="65" cy="249" r="3.5" fill="#5EEAD4"/>
    <text x="78" y="253.5" font-size="11.5" fill="#A1A1A6">
      <tspan fill="#6E6E73">GITHUB </tspan><tspan fill="#F5F5F7">@zainsk12</tspan>
    </text>
  </g>
  <g id="chip-1">
    <rect x="137.4" y="232" width="117" height="34" rx="17"
          fill="#111113" stroke="#232326" stroke-width="1"/>
    <circle cx="154.4" cy="249" r="3.5" fill="#5EEAD4"/>
    <text x="167.4" y="253.5" font-size="11.5" fill="#A1A1A6">
      <tspan fill="#6E6E73">LINKEDIN </tspan><tspan fill="#F5F5F7">zain-shaikh-30j</tspan>
    </text>
  </g>
  <g id="chip-2">
    <rect x="266.4" y="232" width="58" height="34" rx="17"
          fill="#111113" stroke="#232326" stroke-width="1"/>
    <circle cx="283.4" cy="249" r="3.5" fill="#5EEAD4"/>
    <text x="296.4" y="253.5" font-size="11.5" fill="#A1A1A6">
      <tspan fill="#6E6E73">LOCATION </tspan><tspan fill="#F5F5F7">Nashik</tspan>
    </text>
  </g></g>
</svg>